<svg width="14" height="14" viewBox="0 0 14 14" fill="none" xmlns="http://www.w3.org/2000/svg">
<path d="M13.5999 12.5024L13.4488 12.3691C13.0201 11.9871 12.6449 11.5491 12.3332 11.0668C11.9929 10.4013 11.7889 9.6745 11.7332 8.92906V6.73351C11.7362 5.56267 11.3115 4.43105 10.5389 3.55127C9.76634 2.67149 8.69909 2.10411 7.53769 1.95573V1.3824C7.53769 1.22503 7.47518 1.07412 7.36391 0.962846C7.25264 0.851574 7.10172 0.789062 6.94436 0.789062C6.787 0.789062 6.63608 0.851574 6.52481 0.962846C6.41354 1.07412 6.35102 1.22503 6.35102 1.3824V1.96462C5.20003 2.1237 4.14568 2.69451 3.38326 3.57133C2.62084 4.44816 2.20202 5.57157 2.20436 6.73351V8.92906C2.14869 9.6745 1.9447 10.4013 1.60436 11.0668C1.29808 11.5479 0.928889 11.9858 0.50658 12.3691L0.355469 12.5024V13.7557H13.5999V12.5024Z" fill="black"/>
</svg>
