<svg width="128" height="23" viewBox="0 0 128 23" fill="none" xmlns="http://www.w3.org/2000/svg">
<path d="M8.10213 22.544C7.24879 22.544 6.38479 22.448 5.51013 22.256C4.65679 22.0853 3.86746 21.8293 3.14213 21.488C2.43813 21.1467 1.87279 20.7413 1.44613 20.272C1.01946 19.7813 0.806125 19.2373 0.806125 18.64V15.216H1.38213C1.74479 17.3707 2.44879 18.9173 3.49413 19.856C4.56079 20.7947 6.00079 21.264 7.81413 21.264C8.53946 21.264 9.22213 21.1467 9.86213 20.912C10.5021 20.656 11.0141 20.2827 11.3981 19.792C11.8035 19.3013 12.0061 18.704 12.0061 18C12.0061 17.0613 11.7075 16.2613 11.1101 15.6C10.5341 14.9387 9.65946 14.2667 8.48612 13.584L4.55013 11.248C3.18479 10.4373 2.21413 9.616 1.63813 8.784C1.08346 7.952 0.806125 6.93867 0.806125 5.744C0.806125 4.10133 1.37146 2.78933 2.50213 1.808C3.65413 0.805332 5.15813 0.303999 7.01413 0.303999C7.80346 0.303999 8.60346 0.389332 9.41413 0.559999C10.2248 0.730665 10.9715 0.986665 11.6541 1.328C12.3368 1.648 12.8808 2.04267 13.2861 2.512C13.7128 2.98133 13.9261 3.52533 13.9261 4.144V7.568H13.3501C12.9875 5.41333 12.2941 3.87733 11.2701 2.96C10.2461 2.04267 8.82746 1.584 7.01413 1.584C6.39546 1.584 5.79813 1.72267 5.22213 2C4.64613 2.256 4.17679 2.62933 3.81413 3.12C3.47279 3.58933 3.30212 4.15467 3.30212 4.816C3.30212 5.73333 3.60079 6.49067 4.19813 7.088C4.79546 7.68533 5.68079 8.32533 6.85413 9.008L10.7901 11.344C12.1555 12.1547 13.1581 12.944 13.7981 13.712C14.4381 14.4587 14.7581 15.4293 14.7581 16.624C14.7581 18.416 14.1608 19.856 12.9661 20.944C11.7715 22.0107 10.1501 22.544 8.10213 22.544ZM24.3006 22.32C22.8073 22.32 21.5593 21.968 20.5566 21.264C19.5753 20.56 18.8286 19.6107 18.3166 18.416C17.826 17.2213 17.5806 15.9093 17.5806 14.48C17.5806 13.0293 17.8366 11.7173 18.3486 10.544C18.8606 9.34933 19.5966 8.4 20.5566 7.696C21.5166 6.992 22.658 6.64 23.9806 6.64C25.4313 6.64 26.626 6.91733 27.5646 7.472C28.5246 8.00533 29.2286 8.79467 29.6766 9.84C30.146 10.8853 30.3806 12.1653 30.3806 13.68L30.3166 14.96H20.6206C20.6206 16.7093 20.994 18.16 21.7406 19.312C22.5086 20.464 23.5753 21.04 24.9406 21.04C25.986 21.04 26.85 20.816 27.5326 20.368C28.2366 19.92 28.866 19.2907 29.4206 18.48L30.0606 18.96C29.5913 19.7707 29.058 20.4213 28.4606 20.912C27.8846 21.4027 27.2446 21.7653 26.5406 22C25.858 22.2133 25.1113 22.32 24.3006 22.32ZM20.6206 13.68H27.3406C27.3406 11.824 27.0633 10.4053 26.5086 9.424C25.954 8.42133 25.1113 7.92 23.9806 7.92C23.3406 7.92 22.7646 8.176 22.2526 8.688C21.762 9.17867 21.3673 9.86133 21.0686 10.736C20.77 11.5893 20.6206 12.5707 20.6206 13.68ZM39.9256 22.32C38.4323 22.32 37.1843 21.968 36.1816 21.264C35.2003 20.56 34.4536 19.6107 33.9416 18.416C33.451 17.2213 33.2056 15.9093 33.2056 14.48C33.2056 13.0293 33.4616 11.7173 33.9736 10.544C34.4856 9.34933 35.2216 8.4 36.1816 7.696C37.1416 6.992 38.283 6.64 39.6056 6.64C41.0563 6.64 42.251 6.91733 43.1896 7.472C44.1496 8.00533 44.8536 8.79467 45.3016 9.84C45.771 10.8853 46.0056 12.1653 46.0056 13.68L45.9416 14.96H36.2456C36.2456 16.7093 36.619 18.16 37.3656 19.312C38.1336 20.464 39.2003 21.04 40.5656 21.04C41.611 21.04 42.475 20.816 43.1576 20.368C43.8616 19.92 44.491 19.2907 45.0456 18.48L45.6856 18.96C45.2163 19.7707 44.683 20.4213 44.0856 20.912C43.5096 21.4027 42.8696 21.7653 42.1656 22C41.483 22.2133 40.7363 22.32 39.9256 22.32ZM36.2456 13.68H42.9656C42.9656 11.824 42.6883 10.4053 42.1336 9.424C41.579 8.42133 40.7363 7.92 39.6056 7.92C38.9656 7.92 38.3896 8.176 37.8776 8.688C37.387 9.17867 36.9923 9.86133 36.6936 10.736C36.395 11.5893 36.2456 12.5707 36.2456 13.68ZM54.6546 22.32C53.3746 22.32 52.308 21.968 51.4546 21.264C50.6013 20.56 49.9613 19.6107 49.5346 18.416C49.108 17.2213 48.8946 15.9093 48.8946 14.48C48.8946 13.0293 49.108 11.7173 49.5346 10.544C49.9826 9.34933 50.6546 8.4 51.5506 7.696C52.4466 6.992 53.588 6.64 54.9746 6.64C55.8706 6.64 56.6386 6.74667 57.2786 6.96C57.9186 7.152 58.484 7.36533 58.9746 7.6V4.72C58.9746 3.76 58.836 2.992 58.5586 2.416C58.3026 1.81867 57.6946 1.52 56.7346 1.52H56.0946V0.879999H58.9746C59.7213 0.879999 60.2973 0.975999 60.7026 1.168C61.1293 1.36 61.428 1.73333 61.5986 2.288C61.7693 2.84267 61.8546 3.65333 61.8546 4.72V22H60.2546L59.1346 20.56H58.9746C58.6333 20.9653 58.1533 21.36 57.5346 21.744C56.916 22.128 55.956 22.32 54.6546 22.32ZM55.6146 21.04C56.276 21.04 56.8093 20.944 57.2146 20.752C57.62 20.56 57.9506 20.3253 58.2066 20.048C58.484 19.7493 58.74 19.44 58.9746 19.12V8.88C58.484 8.64533 57.972 8.432 57.4386 8.24C56.9266 8.02667 56.4253 7.92 55.9346 7.92C54.9746 7.92 54.196 8.21867 53.5986 8.816C53.0226 9.392 52.596 10.1707 52.3186 11.152C52.0626 12.1333 51.9346 13.2427 51.9346 14.48C51.9346 15.696 52.0626 16.8053 52.3186 17.808C52.5746 18.7893 52.9693 19.5787 53.5026 20.176C54.0573 20.752 54.7613 21.04 55.6146 21.04Z" fill="#1A5B20"/>
<path d="M75.4999 22.64C73.4732 22.64 71.7132 22.16 70.2199 21.2C68.7479 20.2187 67.6065 18.9067 66.7959 17.264C65.9852 15.6 65.5799 13.7653 65.5799 11.76C65.5799 10.16 65.8359 8.66667 66.3479 7.28C66.8599 5.872 67.5745 4.64533 68.4919 3.6C69.4092 2.55467 70.4652 1.73333 71.6599 1.136C72.8545 0.538666 74.1345 0.24 75.4999 0.24C77.2705 0.24 78.7959 0.496 80.0759 1.008C81.3559 1.49867 82.2839 2.096 82.8599 2.8C83.2652 3.29067 83.4999 3.97333 83.5639 4.848C83.6279 5.72267 83.6599 6.64 83.6599 7.6H83.0199C82.6145 5.50933 81.8572 3.97333 80.7479 2.992C79.6599 2.01067 78.2305 1.52 76.4599 1.52C75.0732 1.52 73.7932 1.84 72.6199 2.48C71.4465 3.12 70.5079 4.18667 69.8039 5.68C69.1212 7.17333 68.7799 9.2 68.7799 11.76C68.7799 12.9547 68.9185 14.128 69.1959 15.28C69.4945 16.4107 69.9532 17.4347 70.5719 18.352C71.1905 19.2693 71.9799 20.0053 72.9399 20.56C73.9212 21.0933 75.0945 21.36 76.4599 21.36C78.0599 21.36 79.4359 20.976 80.5879 20.208C81.7399 19.44 82.7639 18.3307 83.6599 16.88L84.2999 17.36C83.2759 19.3653 82.0279 20.752 80.5559 21.52C79.0839 22.2667 77.3985 22.64 75.4999 22.64ZM91.3411 22.32C90.8931 22.32 90.4025 22.2453 89.8691 22.096C89.3571 21.968 88.8558 21.7333 88.3651 21.392C87.8745 21.0507 87.4691 20.592 87.1491 20.016C86.8505 19.44 86.7011 18.7147 86.7011 17.84C86.7011 16.6667 87.0745 15.76 87.8211 15.12C88.5891 14.48 89.5918 14.032 90.8291 13.776C92.0878 13.4987 93.4318 13.36 94.8611 13.36H95.8211C95.8211 11.8667 95.6718 10.736 95.3731 9.968C95.0745 9.17867 94.6691 8.64533 94.1571 8.368C93.6665 8.06933 93.1011 7.92 92.4611 7.92C91.5651 7.92 90.8078 8.112 90.1891 8.496C89.5918 8.88 89.1758 9.59467 88.9411 10.64H87.5011C87.5011 10.0853 87.5331 9.57333 87.5971 9.104C87.6611 8.61333 87.8958 8.16533 88.3011 7.76C88.7065 7.35467 89.3678 7.06667 90.2851 6.896C91.2025 6.72533 92.1411 6.64 93.1011 6.64C93.8265 6.64 94.5198 6.72533 95.1811 6.896C95.8638 7.06667 96.4611 7.38667 96.9731 7.856C97.5065 8.304 97.9225 8.976 98.2211 9.872C98.5411 10.7467 98.7011 11.9093 98.7011 13.36V22H97.1011L95.9811 20.56H95.8211C95.5011 20.9653 94.9785 21.36 94.2531 21.744C93.5278 22.128 92.5571 22.32 91.3411 22.32ZM92.7811 20.88C93.5705 20.88 94.1891 20.688 94.6371 20.304C95.1065 19.8987 95.5011 19.4507 95.8211 18.96V14.64H94.8611C93.2611 14.64 92.0025 14.9387 91.0851 15.536C90.1891 16.112 89.7411 16.88 89.7411 17.84C89.7411 18.8853 90.0505 19.6533 90.6691 20.144C91.2878 20.6347 91.9918 20.88 92.7811 20.88ZM103.419 22V10.8C103.419 9.84 103.281 9.072 103.003 8.496C102.747 7.89867 102.139 7.6 101.179 7.6H100.859V6.96H103.419C104.23 6.96 104.838 7.07733 105.243 7.312C105.67 7.54667 105.969 7.90933 106.139 8.4C106.502 8.03733 107.025 7.65333 107.707 7.248C108.411 6.84267 109.222 6.64 110.139 6.64C110.459 6.64 110.801 6.68267 111.163 6.768C111.526 6.832 111.825 6.94933 112.059 7.12C112.294 7.29067 112.497 7.49333 112.667 7.728C112.838 7.96267 113.009 8.24 113.179 8.56L111.899 9.52C111.665 9.2 111.313 8.96533 110.843 8.816C110.395 8.64533 109.894 8.56 109.339 8.56C108.699 8.56 108.113 8.70933 107.579 9.008C107.046 9.28533 106.619 9.66933 106.299 10.16C106.299 10.2667 106.299 10.4267 106.299 10.64C106.299 10.832 106.299 10.992 106.299 11.12V22H103.419ZM121.457 22.32C119.964 22.32 118.716 21.968 117.713 21.264C116.732 20.56 115.985 19.6107 115.473 18.416C114.982 17.2213 114.737 15.9093 114.737 14.48C114.737 13.0293 114.993 11.7173 115.505 10.544C116.017 9.34933 116.753 8.4 117.713 7.696C118.673 6.992 119.814 6.64 121.137 6.64C122.588 6.64 123.782 6.91733 124.721 7.472C125.681 8.00533 126.385 8.79467 126.833 9.84C127.302 10.8853 127.537 12.1653 127.537 13.68L127.473 14.96H117.777C117.777 16.7093 118.15 18.16 118.897 19.312C119.665 20.464 120.732 21.04 122.097 21.04C123.142 21.04 124.006 20.816 124.689 20.368C125.393 19.92 126.022 19.2907 126.577 18.48L127.217 18.96C126.748 19.7707 126.214 20.4213 125.617 20.912C125.041 21.4027 124.401 21.7653 123.697 22C123.014 22.2133 122.268 22.32 121.457 22.32ZM117.777 13.68H124.497C124.497 11.824 124.22 10.4053 123.665 9.424C123.11 8.42133 122.268 7.92 121.137 7.92C120.497 7.92 119.921 8.176 119.409 8.688C118.918 9.17867 118.524 9.86133 118.225 10.736C117.926 11.5893 117.777 12.5707 117.777 13.68Z" fill="#299934" fill-opacity="0.96"/>
</svg>
