<svg width="39" height="40" viewBox="0 0 39 40" fill="none" xmlns="http://www.w3.org/2000/svg">
<path d="M38.1806 36.3631L38.181 36.3636C38.3609 36.5466 38.504 36.7647 38.6018 37.0054C38.6996 37.2461 38.75 37.5045 38.75 37.7656C38.75 38.0267 38.6996 38.2851 38.6018 38.5259C38.504 38.7666 38.3609 38.9846 38.181 39.1676L38.1796 39.1691C38.0012 39.3536 37.7892 39.4997 37.5562 39.5993C37.3232 39.6988 37.0735 39.75 36.8215 39.75C36.5694 39.75 36.3197 39.6988 36.0867 39.5993C35.8537 39.4997 35.6418 39.3536 35.4633 39.1691L35.4629 39.1686L28.1203 31.6155L27.9616 31.4523L27.7842 31.595C24.8012 33.9965 21.1185 35.2989 17.3281 35.2941H17.3278C13.9515 35.2941 10.6506 34.2673 7.8423 32.3428C5.03394 30.4182 2.84416 27.682 1.55081 24.4795C0.25745 21.277 -0.081046 17.7527 0.578383 14.3525C1.23781 10.9524 2.86533 7.82996 5.25419 5.37985C7.64298 2.9298 10.6857 1.26204 13.9973 0.586447C17.3087 -0.0891396 20.7413 0.257535 23.861 1.58292C26.9809 2.90834 29.6485 5.1533 31.5258 8.0349C33.4031 10.9166 34.4055 14.3051 34.4055 17.7721V17.7724C34.4102 21.6648 33.1387 25.445 30.7965 28.5055L30.6649 28.6774L30.8163 28.8322L38.1806 36.3631ZM6.31266 10.2304C4.858 12.4633 4.08194 15.0878 4.08194 17.7721C4.08194 21.3714 5.47598 24.8246 7.95933 27.3716C10.4429 29.9189 13.8127 31.3511 17.3278 31.3511C19.949 31.3511 22.5108 30.5539 24.6892 29.061C26.8675 27.5681 28.5644 25.447 29.5661 22.9665C30.5679 20.486 30.8299 17.7569 30.3193 15.1241C29.8087 12.4912 28.5481 10.0719 26.6962 8.17248C24.8441 6.27296 22.4837 4.97863 19.9131 4.45418C17.3424 3.92972 14.6779 4.19895 12.2567 5.22754C9.83566 6.25609 7.76737 7.99743 6.31266 10.2304Z" fill="white" fill-opacity="0.7" stroke="#45D08D" stroke-width="0.5"/>
</svg>
